<svg width="244" height="216" viewBox="0 0 244 216" fill="none" xmlns="http://www.w3.org/2000/svg">
<g filter="url(#filter0_dd_3174_392)">
<path d="M51.2384 171.928C50.7896 171.93 49.6907 171.88 47.9417 171.777C46.27 171.644 44.6287 171.363 43.0178 170.935C41.407 170.508 40.1282 169.901 39.1816 169.115C38.3121 168.298 38.471 167.245 39.6581 165.957C40.8201 166.386 42.3537 166.845 44.2588 167.333C46.2412 167.791 48.037 168.009 49.6463 167.988C53.9895 166.503 58.1388 164.871 62.0942 163.093C66.0183 161.238 69.7173 159.16 73.1912 156.857C76.711 154.446 79.9203 151.712 82.8189 148.653C85.7636 145.486 88.3895 141.864 90.6966 137.786C93.2027 133.088 94.5045 129.192 94.6021 126.097C94.7458 122.893 93.9786 120.327 92.3006 118.398C90.6687 116.361 88.3036 114.845 85.2052 113.85C82.1529 112.746 78.6994 111.985 74.8447 111.565C71.0361 111.036 67.0581 110.756 62.9108 110.724C58.7322 110.615 54.7394 110.52 50.9324 110.441C47.0941 110.284 43.5805 110.041 40.3916 109.711C37.2027 109.382 34.6935 108.733 32.8641 107.764C32.0244 106.576 32.0568 104.765 32.9614 102.332C33.8659 99.8996 35.373 97.1786 37.4826 94.1692C39.561 91.0825 42.08 87.8628 45.0395 84.51C47.9678 81.0799 51.0514 77.8118 54.2903 74.7056C57.6065 71.5683 60.8618 68.7251 64.0563 66.1762C67.328 63.596 70.3078 61.6282 72.9957 60.2725C75.6523 58.8397 77.8552 58.1744 79.6042 58.2766C81.3532 58.3789 82.3861 59.4895 82.7029 61.6084C82.1933 61.9042 80.943 62.8138 78.952 64.3372C76.9611 65.8606 74.5303 67.7415 71.6598 69.9798C68.8665 72.1869 65.8266 74.6734 62.5401 77.4393C59.3308 80.174 56.1914 82.9703 53.1219 85.8283C50.0211 88.609 47.2063 91.3191 44.6776 93.9585C42.1489 96.598 40.2614 98.9335 39.015 100.965C37.7686 102.997 37.248 104.6 37.4532 105.775C37.7357 106.919 39.1534 107.425 41.7063 107.293C54.3606 106.135 64.6747 106.192 72.6486 107.464C80.6685 108.628 86.788 110.649 91.0071 113.528C95.195 116.33 97.7447 119.749 98.6562 123.785C99.5677 127.82 99.2883 132.023 97.8178 136.392C96.4247 140.729 94.0411 145.063 90.6672 149.392C87.262 153.644 83.3679 157.464 78.9848 160.853C74.679 164.21 70.0692 166.927 65.1555 169.002C60.319 171.046 55.6799 172.021 51.2384 171.928ZM132.135 139.244C130.891 137.5 130.001 135.298 129.466 132.638C128.977 129.869 128.681 127.023 128.578 124.099C128.475 121.174 128.496 118.335 128.641 115.58C128.755 112.747 128.847 110.418 128.918 108.592C128.93 107.509 128.963 105.922 129.018 103.833C129.15 101.713 129.266 99.3291 129.365 96.6826C129.541 94.0048 129.671 91.2112 129.753 88.3017C129.913 85.3609 130.043 82.5673 130.142 79.9208C130.319 77.243 130.45 74.8982 130.536 72.8862C130.668 70.7657 130.755 69.2024 130.798 68.1964C129.391 68.4953 127.545 69.376 125.259 70.8386C123.051 72.2699 120.636 73.965 118.012 75.9239C115.357 77.8056 112.64 79.7571 109.861 81.7784C107.083 83.7997 104.42 85.5499 101.871 87.0288C99.3692 88.3993 97.1055 89.3588 95.0802 89.9074C93.101 90.3476 91.6142 90.0046 90.6199 88.8784C90.7549 87.6554 92.2569 85.7004 95.1259 83.0133C97.9949 80.3262 101.775 77.2259 106.468 73.7124C111.206 70.0903 116.523 66.2342 122.421 62.1439C128.395 58.0224 134.517 53.9313 140.785 49.8707C147.054 45.8101 153.215 41.9278 159.268 38.2238C165.321 34.5199 170.757 31.29 175.576 28.5343C180.394 25.7786 184.302 23.6605 187.299 22.18C190.373 20.6683 192.066 20.0744 192.376 20.3983C192.858 20.9227 193.209 21.6798 193.429 22.6694C193.618 23.5818 193.334 24.3255 192.578 24.9007C189.041 27.0485 185.227 29.3984 181.135 31.9504C177.012 34.4252 172.843 37.0084 168.628 39.7002C164.458 42.2834 160.382 44.8741 156.399 47.4722C152.384 49.993 148.678 52.3889 145.282 54.66C143.074 56.0913 141.318 58.4186 140.014 61.6419C138.709 64.8651 137.717 68.6367 137.035 72.9565C136.323 77.199 135.859 81.8353 135.644 86.8653C135.398 91.8181 135.261 96.8169 135.232 101.862C135.28 106.875 135.382 111.688 135.537 116.299C135.693 120.91 135.777 125.01 135.789 128.6C135.77 132.113 135.641 134.907 135.4 136.981C135.16 139.055 134.668 140.063 133.925 140.004C133.708 139.912 133.383 139.773 132.949 139.589C132.515 139.405 132.244 139.29 132.135 139.244Z" fill="white"/>
</g>
<defs>
<filter id="filter0_dd_3174_392" x="1.23975" y="12.6085" width="229.292" height="173.828" filterUnits="userSpaceOnUse" color-interpolation-filters="sRGB">
<feFlood flood-opacity="0" result="BackgroundImageFix"/>
<feColorMatrix in="SourceAlpha" type="matrix" values="0 0 0 0 0 0 0 0 0 0 0 0 0 0 0 0 0 0 127 0" result="hardAlpha"/>
<feOffset dy="4"/>
<feGaussianBlur stdDeviation="2"/>
<feComposite in2="hardAlpha" operator="out"/>
<feColorMatrix type="matrix" values="0 0 0 0 0 0 0 0 0 0 0 0 0 0 0 0 0 0 1 0"/>
<feBlend mode="normal" in2="BackgroundImageFix" result="effect1_dropShadow_3174_392"/>
<feColorMatrix in="SourceAlpha" type="matrix" values="0 0 0 0 0 0 0 0 0 0 0 0 0 0 0 0 0 0 127 0" result="hardAlpha"/>
<feOffset dy="4"/>
<feGaussianBlur stdDeviation="2"/>
<feComposite in2="hardAlpha" operator="out"/>
<feColorMatrix type="matrix" values="0 0 0 0 0 0 0 0 0 0 0 0 0 0 0 0 0 0 1 0"/>
<feBlend mode="normal" in2="effect1_dropShadow_3174_392" result="effect2_dropShadow_3174_392"/>
<feBlend mode="normal" in="SourceGraphic" in2="effect2_dropShadow_3174_392" result="shape"/>
</filter>
</defs>
</svg>
